<svg width="178" height="83" viewBox="0 0 178 83" fill="none" xmlns="http://www.w3.org/2000/svg">
<path d="M31.1146 68.7823C30.3582 68.7823 29.9799 67.7734 29.9799 65.7472V15.713C29.9799 14.7461 29.7866 14.2921 29.3916 14.3509C27.0046 14.9563 25.8027 15.2589 25.7691 15.2589C25.1051 15.3178 24.7773 14.6536 24.7773 13.2663V8.91953C24.7773 7.71723 25.1388 7.03621 25.8616 6.88488L37.8132 3.80765C37.9057 3.78243 38.0402 3.76562 38.2167 3.76562C38.8806 3.76562 39.2084 4.47186 39.2084 5.89276V65.7556C39.2084 67.7818 38.8134 68.7907 38.0318 68.7907L31.1146 68.7823ZM62.0696 68.8748C60.8593 68.8748 59.8171 68.7908 58.9261 68.6226C58.0352 68.4544 57.1107 68.0761 56.1442 67.4876C55.1776 66.899 54.3875 66.0919 53.7656 65.0661C53.1436 64.0404 52.6393 62.6027 52.2527 60.7614C51.8661 58.9201 51.6644 56.7341 51.6644 54.195V30.9729C51.6644 30.3676 51.4963 30.0649 51.1685 30.0649H48.3613C47.6049 30.0649 47.2266 29.3418 47.2266 27.8957V25.4491C47.2266 23.9693 47.6049 23.2294 48.3613 23.2294H51.1685C51.4963 23.2294 51.6644 22.8259 51.6644 22.0103L52.4797 4.39619C52.5721 2.79873 52.9587 2 53.6563 2H58.1865C58.943 2 59.3212 2.79873 59.3212 4.39619V22.0103C59.3212 22.8259 59.4977 23.2294 59.8675 23.2294H65.6416C66.398 23.2294 66.7763 23.9693 66.7763 25.4491V27.8957C66.7763 29.3418 66.398 30.0649 65.6416 30.0649H59.8507C59.6406 30.0649 59.4977 30.1153 59.422 30.2246C59.3464 30.3255 59.3128 30.5778 59.3128 30.9729V54.3379C59.3128 56.0867 59.422 57.5497 59.649 58.7099C59.8759 59.8702 60.2037 60.7278 60.6407 61.2659C61.0778 61.804 61.5148 62.1739 61.9519 62.3505C62.3889 62.5354 62.9269 62.6195 63.5572 62.6195H66.7679C67.5831 62.6195 67.9866 63.1828 67.9866 64.2926V67.0083C67.9866 68.2443 67.5495 68.8664 66.6754 68.8664L62.0696 68.8748ZM79.4423 74.3062C80.1315 74.3062 80.7367 73.7429 81.2494 72.6078C81.7621 71.4728 82.0226 69.8669 82.0226 67.7818C82.0226 67.2942 81.72 65.6211 81.1149 62.754L72.2394 25.8526C72.1806 25.4323 72.1469 25.0959 72.1469 24.8521C72.1469 23.7675 72.3739 23.221 72.8277 23.221H78.3077C78.7279 23.221 79.0725 23.364 79.3499 23.6498C79.6272 23.9357 79.8374 24.5158 79.9802 25.3902L85.8636 56.5407C85.9813 56.9023 86.0569 57.0872 86.0906 57.0872C86.2082 57.0872 86.2755 56.9191 86.2755 56.5912L90.8897 25.5247C91.0074 24.6167 91.2007 24.0114 91.4528 23.6919C91.705 23.3724 92.0328 23.2126 92.4278 23.2126H96.2268C96.7395 23.2126 97 23.8012 97 24.9782C97 25.2473 96.9664 25.6004 96.9076 26.0208L88.8473 68.0004C88.217 71.4728 87.5194 74.1296 86.7629 75.9709C86.0065 77.8122 85.166 79.065 84.2247 79.7292C83.2917 80.3934 82.0562 80.7381 80.5097 80.7717H80.0559C77.6101 80.7717 75.9543 80.1243 75.0802 78.8211C74.8365 78.5521 74.7188 77.8542 74.7188 76.736C74.7188 74.4996 75.0802 73.3814 75.803 73.3814C75.8619 73.3814 76.4082 73.5327 77.4336 73.8354C78.4758 74.1549 79.1398 74.3062 79.4423 74.3062Z" fill="white"/>
<path fill-rule="evenodd" clip-rule="evenodd" d="M53.9776 4.47448L53.1643 22.0469C53.1621 22.505 53.1176 23.0296 52.9276 23.4938C52.8246 23.7457 52.6468 24.0589 52.3338 24.3149C51.9957 24.5913 51.5857 24.7294 51.1685 24.7294H48.7763C48.7763 24.7296 48.7764 24.7293 48.7763 24.7294C48.7468 24.9025 48.7266 25.1389 48.7266 25.4491V27.8957C48.7266 28.1827 48.7449 28.4024 48.7715 28.5649H51.1685C51.4896 28.5649 51.8397 28.6419 52.167 28.842C52.4905 29.0399 52.7109 29.3087 52.8546 29.5706C53.1179 30.0509 53.1644 30.5793 53.1644 30.9729V54.195C53.1644 56.6594 53.3606 58.738 53.7207 60.4532C54.0902 62.213 54.5498 63.4664 55.0482 64.2884C55.5546 65.1236 56.1777 65.7518 56.9243 66.2064C57.7749 66.7243 58.5303 67.0214 59.2044 67.1486C59.9789 67.2948 60.9229 67.3747 62.0668 67.3748C62.0668 67.3748 62.0668 67.3748 62.0668 67.3748C62.0677 67.3748 62.0687 67.3748 62.0696 67.3748L66.4647 67.3668C66.4773 67.2779 66.4866 67.16 66.4866 67.0083V64.2926C66.4866 64.2267 66.4844 64.1692 66.481 64.1195H63.5572C62.812 64.1195 62.0602 64.0228 61.378 63.7364C60.6132 63.424 59.9873 62.8405 59.4764 62.2116C58.8074 61.3879 58.42 60.2411 58.1769 58.9978C57.9243 57.7068 57.8128 56.1381 57.8128 54.3379V30.9729C57.8128 30.7434 57.8219 30.5019 57.8541 30.2764C57.8766 30.1189 57.9387 29.7189 58.2013 29.3529C58.7037 28.6444 59.4812 28.5649 59.8507 28.5649H65.2314C65.258 28.4024 65.2763 28.1827 65.2763 27.8957V25.4491C65.2763 25.1389 65.2561 24.903 65.2267 24.7299C65.2266 24.7298 65.2267 24.7301 65.2267 24.7299L59.8675 24.7294C59.4837 24.7294 59.0846 24.6182 58.7356 24.3607C58.4037 24.1158 58.2047 23.8038 58.0854 23.5361C57.8642 23.0394 57.8212 22.4774 57.8212 22.0103V4.39619C57.8212 4.05214 57.8005 3.78408 57.7686 3.58173C57.764 3.5524 57.7592 3.52519 57.7544 3.5H54.1073C54.0967 3.54197 54.0858 3.58954 54.0751 3.64318C54.0326 3.85457 53.9979 4.12863 53.9776 4.47448ZM51.4937 1.93978C51.8573 1.19678 52.5664 0.5 53.6563 0.5H58.1865C58.6554 0.5 59.1288 0.629259 59.5464 0.923191C59.9504 1.20761 60.2176 1.58614 60.3932 1.9571C60.7258 2.6595 60.8212 3.52671 60.8212 4.39619V21.7294H65.6416C66.0865 21.7294 66.5439 21.8421 66.9573 22.1117C67.363 22.3762 67.6414 22.7361 67.8282 23.1016C68.1797 23.7891 68.2763 24.63 68.2763 25.4491V27.8957C68.2763 28.7007 68.1792 29.5345 67.8217 30.2178C67.6315 30.5816 67.3498 30.9358 66.9441 31.1943C66.5323 31.4567 66.0797 31.5649 65.6416 31.5649H60.8128V54.3379C60.8128 56.0353 60.9197 57.3926 61.1211 58.422C61.3318 59.4993 61.5999 60.0676 61.8051 60.3202C62.1656 60.7641 62.41 60.9177 62.5137 60.9597L62.5252 60.9643L62.5365 60.9691C62.7256 61.0491 63.0456 61.1195 63.5572 61.1195H66.7679C67.5618 61.1195 68.3611 61.4201 68.8972 62.1592C69.3687 62.8093 69.4866 63.6004 69.4866 64.2926V67.0083C69.4866 67.7577 69.3622 68.5877 68.8848 69.265C68.3408 70.0369 67.5181 70.3657 66.6781 70.3664M66.6754 70.3664L62.0723 70.3748H62.0696C60.7941 70.3748 59.6546 70.2866 58.6479 70.0966C57.5401 69.8875 56.4466 69.4279 55.364 68.7687C54.1775 68.0462 53.2205 67.0602 52.483 65.8439C51.7374 64.6144 51.1885 62.9924 50.7847 61.0696C50.3716 59.1022 50.1644 56.8089 50.1644 54.195V31.5649H48.3613C47.9232 31.5649 47.4706 31.4567 47.0588 31.1943C46.6531 30.9358 46.3714 30.5816 46.1812 30.2178C45.8237 29.5345 45.7266 28.7007 45.7266 27.8957V25.4491C45.7266 24.63 45.8232 23.7891 46.1747 23.1016C46.3615 22.7361 46.6399 22.3762 47.0456 22.1117C47.459 21.8421 47.9164 21.7294 48.3613 21.7294H50.1758L50.9817 4.31818L50.9822 4.30953C51.032 3.44761 51.1661 2.6094 51.4937 1.93978M37.6883 5.38875L26.338 8.31113C26.3316 8.3352 26.3248 8.36415 26.3182 8.39852C26.2948 8.52058 26.2773 8.69106 26.2773 8.91953V13.2663C26.2773 13.3859 26.2803 13.4932 26.2855 13.5889C26.301 13.585 26.3168 13.5811 26.3327 13.577C26.9337 13.4262 27.8293 13.1996 29.0229 12.8969L29.096 12.8784L29.1706 12.8673C29.589 12.8049 30.0622 12.8732 30.4855 13.157C30.8764 13.4191 31.0921 13.7763 31.2117 14.0543C31.4354 14.5741 31.4799 15.1853 31.4799 15.713V65.7472C31.4799 66.4911 31.537 66.9831 31.6059 67.2829L37.5758 67.2902C37.6474 66.997 37.7084 66.5068 37.7084 65.7556V5.89276C37.7084 5.69546 37.7009 5.52843 37.6883 5.38875ZM31.1146 67.2823C31.1152 67.2823 31.1158 67.2823 31.1164 67.2823ZM37.4317 2.35698C37.6917 2.28777 37.9643 2.26562 38.2167 2.26562C38.665 2.26562 39.1207 2.39057 39.5221 2.67649C39.909 2.95215 40.1596 3.3158 40.3213 3.66309C40.6263 4.31801 40.7084 5.11511 40.7084 5.89276V65.7556C40.7084 66.8229 40.6104 67.8069 40.3113 68.5764C40.1574 68.9726 39.9161 69.4013 39.5228 69.7392C39.1009 70.1017 38.5819 70.2907 38.0318 70.2907H38.0299L31.1146 70.2823M37.4317 2.35698L25.5147 5.42527C24.7155 5.60435 24.0973 6.10264 23.7243 6.80325C23.3808 7.44854 23.2773 8.1981 23.2773 8.91953V13.2663C23.2773 14.0222 23.3575 14.8212 23.6808 15.4722C23.8547 15.8222 24.1288 16.1895 24.5531 16.4482C24.9869 16.7127 25.4582 16.7907 25.8925 16.7539C25.9331 16.7506 25.9615 16.7467 25.9704 16.7455L25.972 16.7453C26.0014 16.7413 26.025 16.7372 26.0377 16.735C26.0638 16.7304 26.086 16.7258 26.0981 16.7232C26.1245 16.7177 26.152 16.7114 26.1757 16.7059C26.2252 16.6944 26.2911 16.6785 26.37 16.6592C26.5293 16.6203 26.7609 16.5626 27.063 16.4868C27.4282 16.3952 27.9005 16.276 28.4799 16.1293M92.5944 24.7126C92.5824 24.7441 92.5685 24.7836 92.5535 24.8321C92.492 25.0303 92.4289 25.3192 92.3773 25.7175L92.3755 25.7313L87.7735 56.7154C87.7662 56.9338 87.7356 57.2151 87.6295 57.4945C87.5059 57.8201 87.0705 58.5872 86.0906 58.5872C85.4428 58.5872 85.0611 58.1878 84.9946 58.1181L84.9923 58.1157C84.8728 57.9908 84.7992 57.8715 84.7679 57.8188C84.6985 57.702 84.6496 57.5885 84.6225 57.5229C84.5617 57.3758 84.4988 57.1941 84.4373 57.005L84.4075 56.9136L78.5029 25.6504L78.4999 25.6321C78.4375 25.2506 78.3682 24.9843 78.3051 24.8101C78.2919 24.7735 78.28 24.7441 78.27 24.721H73.6484C73.6475 24.7623 73.6469 24.806 73.6469 24.8521C73.6469 24.978 73.6653 25.207 73.7152 25.5741L82.5782 62.4237L82.5826 62.4442C82.8863 63.8834 83.1167 65.0348 83.2718 65.8936C83.4163 66.6937 83.5226 67.3765 83.5226 67.7818C83.5226 69.9587 83.2557 71.8099 82.6164 73.2253C82.0609 74.455 81.0875 75.8062 79.4423 75.8062C79.1065 75.8062 78.7214 75.7321 78.3752 75.6515C77.9972 75.5635 77.5376 75.436 77.0017 75.2719C76.7444 75.1959 76.5193 75.1301 76.3261 75.0743C76.2631 75.4458 76.2188 75.9873 76.2188 76.736C76.2188 77.2545 76.247 77.6135 76.2864 77.8425C76.2957 77.8967 76.3045 77.9364 76.3114 77.9638L76.326 77.9856C76.7907 78.6785 77.8176 79.2717 80.0559 79.2717H80.4927C81.8358 79.2404 82.7431 78.9427 83.3547 78.5072L83.3599 78.5036C83.9511 78.0864 84.6556 77.1531 85.3755 75.4009C86.073 73.703 86.7482 71.1658 87.3714 67.7325L87.3728 67.725L95.4271 25.7761C95.4791 25.3977 95.5 25.1375 95.5 24.9782C95.5 24.8799 95.4978 24.7916 95.4938 24.7126H92.5944ZM76.3253 78.0121C76.3252 78.0117 76.325 78.0112 76.3248 78.0106ZM90.2753 22.7626C90.8055 22.0909 91.5633 21.7126 92.4278 21.7126H96.2268C96.6636 21.7126 97.0999 21.8455 97.4731 22.13C97.8266 22.3994 98.044 22.7434 98.1791 23.0509C98.4346 23.6327 98.5 24.3247 98.5 24.9782C98.5 25.352 98.455 25.7863 98.3931 26.2287L98.3878 26.2663L90.3232 68.2684C90.3227 68.2709 90.3223 68.2734 90.3218 68.2759C89.6847 71.7839 88.9652 74.5577 88.1504 76.5409C87.358 78.4698 86.3824 80.0411 85.0925 80.9526C83.841 81.8428 82.2827 82.2335 80.5424 82.2714L80.5261 82.2717H80.0559C77.4341 82.2717 75.1722 81.5867 73.8806 79.7243C73.5245 79.274 73.3943 78.726 73.3299 78.3515C73.2495 77.8848 73.2188 77.3358 73.2188 76.736C73.2188 75.5757 73.308 74.5465 73.5626 73.7587C73.798 73.0302 74.4182 71.8814 75.803 71.8814C75.9269 71.8814 76.0269 71.8972 76.052 71.9012L76.0539 71.9015C76.0951 71.908 76.131 71.9152 76.1555 71.9203C76.2056 71.9308 76.2571 71.9432 76.3029 71.9547C76.397 71.9783 76.5173 72.0106 76.6577 72.0497C76.9412 72.1285 77.3429 72.2446 77.8582 72.3967L77.8657 72.3989L77.8732 72.4012C78.3762 72.5554 78.767 72.6625 79.0554 72.7297C79.2132 72.7664 79.3173 72.7855 79.3785 72.7955C79.3809 72.7933 79.3834 72.7909 79.3861 72.7884C79.4907 72.6903 79.6708 72.4588 79.8824 71.9904C80.2684 71.1357 80.5226 69.7751 80.5226 67.7818L80.5226 67.783C80.5225 67.783 80.5219 67.7549 80.5154 67.6874C80.5086 67.6171 80.4973 67.5229 80.4804 67.4016C80.4464 67.1587 80.3934 66.8356 80.3196 66.4268C80.1728 65.6142 79.9508 64.5024 79.6516 63.0843L70.764 26.1326L70.7539 26.0605C70.6934 25.6285 70.6469 25.206 70.6469 24.8521C70.6469 24.2501 70.7034 23.6026 70.9326 23.0527C71.0533 22.7631 71.2534 22.424 71.592 22.1528C71.9541 21.8626 72.3876 21.721 72.8277 21.721H78.3077C79.1134 21.721 79.8528 22.0141 80.4264 22.6053C80.7716 22.961 80.9841 23.3973 81.1258 23.7885C81.271 24.1893 81.3773 24.6436 81.4575 25.1294L85.9215 48.7646L89.404 25.3177C89.5264 24.3813 89.7546 23.4224 90.2753 22.7626Z" fill="white"/>
<path d="M8.33724 68.8662C7.58081 68.8662 7.20259 67.8573 7.20259 65.831V15.7968C7.20259 14.8299 7.00928 14.3759 6.61425 14.4348C4.22728 15.0401 3.02539 15.3428 2.99177 15.3428C2.32779 15.4016 2 14.7374 2 13.3502V9.00339C2 7.80109 2.36141 7.12007 3.08422 6.96873L15.0443 3.8831C15.1367 3.85788 15.2712 3.84106 15.4477 3.84106C16.1117 3.84106 16.4395 4.54731 16.4395 5.96821V65.831C16.4395 67.8573 16.0445 68.8662 15.2628 68.8662H8.33724Z" fill="white"/>
<path fill-rule="evenodd" clip-rule="evenodd" d="M14.9193 5.46446L3.56069 8.39492C3.55424 8.419 3.54746 8.44797 3.54086 8.48238C3.51742 8.60443 3.5 8.77491 3.5 9.00339V13.3502C3.5 13.4698 3.50294 13.577 3.50814 13.6728C3.52368 13.6689 3.53943 13.6649 3.55539 13.6609C4.1564 13.5101 5.05194 13.2835 6.24551 12.9808L6.31862 12.9623L6.39321 12.9511C6.81162 12.8888 7.28482 12.9571 7.70815 13.2409C8.09906 13.503 8.31473 13.8602 8.43435 14.1381C8.65809 14.6579 8.70259 15.2691 8.70259 15.7968V65.831C8.70259 66.5745 8.7596 67.0663 8.82841 67.3662H14.8067C14.8784 67.073 14.9395 66.5827 14.9395 65.831V5.96821C14.9395 5.77102 14.9319 5.60408 14.9193 5.46446ZM14.7177 67.6278C14.7177 67.6277 14.7182 67.6269 14.7191 67.6255C14.7182 67.6271 14.7177 67.6278 14.7177 67.6278ZM8.92004 67.6489C8.92001 67.6489 8.91951 67.6481 8.91858 67.6463C8.91959 67.648 8.92006 67.6489 8.92004 67.6489ZM14.6623 2.43254C14.9224 2.36325 15.1952 2.34106 15.4477 2.34106C15.8961 2.34106 16.3518 2.46602 16.7531 2.75193C17.1401 3.0276 17.3906 3.39124 17.5524 3.73853C17.8574 4.39345 17.9395 5.19056 17.9395 5.96821V65.831C17.9395 66.8983 17.8414 67.8824 17.5424 68.6518C17.3884 69.048 17.1472 69.4768 16.7539 69.8147C16.332 70.1772 15.813 70.3662 15.2628 70.3662H8.33724C7.77912 70.3662 7.25906 70.1672 6.84352 69.7973C6.45908 69.4551 6.22766 69.0252 6.08134 68.634C5.79612 67.8716 5.70259 66.8947 5.70259 65.831V16.2132C5.12312 16.3598 4.65085 16.479 4.28562 16.5707C3.98353 16.6465 3.75194 16.7041 3.59264 16.7431C3.51377 16.7624 3.44789 16.7783 3.39838 16.7898C3.3747 16.7952 3.34714 16.8015 3.32078 16.8071C3.30865 16.8096 3.28645 16.8142 3.26031 16.8189C3.24769 16.8211 3.22407 16.8252 3.19469 16.8291L3.19306 16.8293C3.18413 16.8306 3.15582 16.8344 3.11531 16.8377C2.68095 16.8746 2.20966 16.7966 1.7758 16.5321C1.35146 16.2733 1.07734 15.9061 0.903464 15.556C0.580175 14.9051 0.5 14.1061 0.5 13.3502V9.00339C0.5 8.28195 0.603467 7.53239 0.946973 6.8871C1.31986 6.18662 1.93791 5.68838 2.73689 5.50922L14.6623 2.43254Z" fill="white"/>
<path d="M131.2 4.9L108.7 7L111.4 36.5L126.1 35.2L124.6 19.2L132.4 18.5C140.2 17.8 146.4 24 147.3 33.3L161.7 32C160.3 15.6 146.6 3.5 131.2 4.9Z" fill="white"/>
<path d="M162.7 41.1001C162.7 50.4001 157 57.2001 149.2 57.2001H141.3V41.1001H126.6V70.7001H149.2C164.6 70.7001 177.1 57.4001 177.1 41.1001H162.7Z" fill="white"/>
</svg>
